Coordinates
version=1
nRows=10
nColumns=46
inDegrees=yes

Units are S.I. units (second, meters, Newtons, ...)
Angles are in degrees.

endheader
time	pelvis_tilt	pelvis_list	pelvis_rotation	pelvis_tx	pelvis_ty	pelvis_tz	bb_angle	bb_tx	bb_ty	bb_tz	hip_flexion_r	hip_adduction_r	hip_rotation_r	knee_angle_r	knee_angle_r_beta	ankle_angle_r	subtalar_angle_r	mtp_angle_r	crank_angle_r	hip_flexion_l	hip_adduction_l	hip_rotation_l	knee_angle_l	knee_angle_l_beta	ankle_angle_l	subtalar_angle_l	mtp_angle_l	crank_angle_l	lumbar_extension	lumbar_bending	lumbar_rotation	arm_flex_r	arm_add_r	arm_rot_r	elbow_flex_r	pro_sup_r	wrist_flex_r	wrist_dev_r	arm_flex_l	arm_add_l	arm_rot_l	elbow_flex_l	pro_sup_l	wrist_flex_l	wrist_dev_l
      5.00500000	    -18.48753783	     -7.88156226	     -7.78900736	      0.20628261	      1.05052185	     -0.25644384	      0.00000000	      0.50000000	      0.00000000	      0.25000000	     86.40682874	      5.32969031	      2.50095525	    105.49414906	      1.84122024	     22.84273411	      3.99226367	      0.00000000	      0.00000000	     41.11861472	    -16.18864426	     -4.41461066	     48.00979924	      0.83792907	     -5.60349841	     -5.14325456	      0.00000000	      0.00000000	    -64.79084606	     10.59953853	      7.01681191	     89.69709106	     -6.79911505	     31.87637976	     64.48787831	     33.60545296	      0.00000000	      0.00000000	     71.08637607	    -37.55311935	     18.69212540	     77.98357195	     43.97333656	      0.00000000	      0.00000000
      5.01000000	    -18.22315811	     -7.58216235	     -7.49338742	      0.20632613	      1.05099270	     -0.25501409	      0.00000000	      0.50000000	      0.00000000	      0.25000000	     85.48390816	      5.24224135	      2.56996897	    103.59031519	      1.80799207	     23.80547694	      3.43496337	      0.00000000	      0.00000000	     41.53261034	    -15.86523041	     -4.02231839	     50.30854817	      0.87804981	     -5.66264751	     -5.74692487	      0.00000000	      0.00000000	    -64.96893918	     10.29265149	      6.60341337	     89.68849573	     -7.04748160	     31.83831871	     64.59951656	     33.57417344	      0.00000000	      0.00000000	     71.34879158	    -37.28373039	     18.57209836	     78.03664633	     43.99138269	      0.00000000	      0.00000000
      5.01500000	    -17.97342666	     -7.66397162	     -7.00157052	      0.20628629	      1.05132121	     -0.25361737	      0.00000000	      0.50000000	      0.00000000	      0.25000000	     84.39554113	      5.05979483	      2.19843976	    101.48838277	      1.77130643	     24.59713269	      2.63811515	      0.00000000	      0.00000000	     42.17620904	    -15.71059183	     -3.04357524	     52.79520123	      0.92145009	     -5.67673769	     -6.62552195	      0.00000000	      0.00000000	    -65.27343498	     10.24127195	      6.53335233	     89.68325272	     -7.47680937	     31.79033499	     64.91469765	     33.51466656	      0.00000000	      0.00000000	     71.73445301	    -36.74712785	     18.49537573	     78.26609317	     44.07473733	      0.00000000	      0.00000000
      5.02000000	    -17.59620599	     -7.42637315	     -6.58113385	      0.20644473	      1.05168837	     -0.25207726	      0.00000000	      0.50000000	      0.00000000	      0.25000000	     83.15155749	      4.89809120	      2.19737878	     99.36177439	      1.73419011	     25.37005134	      2.07264922	      0.00000000	      0.00000000	     42.59498334	    -15.31856689	     -2.37169499	     55.26899649	      0.96462596	     -5.49695816	     -7.22467766	      0.00000000	      0.00000000	    -65.53487607	      9.89265955	      6.04746240	     89.67338332	     -7.87431413	     31.70178036	     65.13756169	     33.48870727	      0.00000000	      0.00000000	     72.11257585	    -36.40537476	     18.38021661	     78.40909080	     44.11826003	      0.00000000	      0.00000000
      5.02500000	    -17.18830540	     -7.06325228	     -6.09514423	      0.20656604	      1.05195391	     -0.25041686	      0.00000000	      0.50000000	      0.00000000	      0.25000000	     81.84198724	      4.65967232	      2.32105848	     97.20365888	      1.69652389	     26.00314857	      1.55436883	      0.00000000	      0.00000000	     43.03174528	    -14.80696506	     -1.81144355	     57.78654313	      1.00856544	     -5.33843022	     -7.67851007	      0.00000000	      0.00000000	    -65.84592243	      9.54311784	      5.47563037	     89.66009183	     -8.18701936	     31.61698400	     65.23525499	     33.47210197	      0.00000000	      0.00000000	     72.40434300	    -36.11474415	     18.31288575	     78.53308248	     44.14837672	      0.00000000	      0.00000000
      5.03000000	    -16.79199172	     -7.06409467	     -5.51295262	      0.20668497	      1.05216230	     -0.24907862	      0.00000000	      0.50000000	      0.00000000	      0.25000000	     80.40909185	      4.37234564	      2.00868275	     94.85218895	      1.65548300	     26.34527622	      0.72335140	      0.00000000	      0.00000000	     43.58870524	    -14.47844766	     -0.77921061	     60.41787601	      1.05449086	     -4.79487171	     -8.14589430	      0.00000000	      0.00000000	    -66.26949038	      9.29966481	      5.14927409	     89.64863551	     -8.77558395	     31.50975547	     65.45209297	     33.45520792	      0.00000000	      0.00000000	     73.10053510	    -35.67472394	     18.21200541	     78.88178234	     44.22752867	      0.00000000	      0.00000000
      5.03500000	    -16.37221872	     -6.78436497	     -4.94024687	      0.20686639	      1.05219070	     -0.24758188	      0.00000000	      0.50000000	      0.00000000	      0.25000000	     78.96830364	      4.06351380	      1.99166838	     92.54118848	      1.61514843	     26.48718467	     -0.21395657	      0.00000000	      0.00000000	     44.07636429	    -13.93854133	     -0.00845080	     63.00911134	      1.09971645	     -4.25173799	     -8.36130070	      0.00000000	      0.00000000	    -66.54926030	      8.92900358	      4.66518972	     89.62988106	     -9.43691486	     31.43719478	     65.70771854	     33.45427003	      0.00000000	      0.00000000	     73.62891163	    -35.14374658	     18.26464487	     79.11956958	     44.30417238	      0.00000000	      0.00000000
      5.04000000	    -15.99129415	     -6.23821362	     -4.46778581	      0.20711698	      1.05202668	     -0.24589753	      0.00000000	      0.50000000	      0.00000000	      0.25000000	     77.59291366	      3.74358116	      2.25164011	     90.25134601	      1.57518314	     26.63975566	     -0.66689310	      0.00000000	      0.00000000	     44.54882741	    -13.25294784	      0.48990000	     65.56239906	      1.14427973	     -3.83500203	     -8.59714134	      0.00000000	      0.00000000	    -66.75057309	      8.40509706	      3.87705553	     89.60059632	     -9.82679978	     31.33309162	     65.81773769	     33.45703412	      0.00000000	      0.00000000	     73.82632238	    -34.79227510	     18.31335155	     79.21105455	     44.33411375	      0.00000000	      0.00000000
      5.04500000	    -15.52162966	     -5.95242799	     -3.60637636	      0.20721359	      1.05183981	     -0.24470003	      0.00000000	      0.50000000	      0.00000000	      0.25000000	     76.05697969	      3.14681832	      2.13518784	     87.92516069	      1.53458355	     26.40372592	     -1.77256540	      0.00000000	      0.00000000	     45.07397863	    -12.47764821	      1.51494159	     68.15956546	      1.18960883	     -2.82639366	     -8.53495088	      0.00000000	      0.00000000	    -67.17390339	      8.21711324	      3.39200656	     89.59215435	    -10.63794314	     31.28517463	     66.08277502	     33.48427364	      0.00000000	      0.00000000	     74.74476869	    -34.21674927	     18.36486124	     79.53954323	     44.41653720	      0.00000000	      0.00000000
      5.05000000	    -15.12935915	     -5.58319839	     -2.91939236	      0.20726245	      1.05147368	     -0.24316431	      0.00000000	      0.50000000	      0.00000000	      0.25000000	     74.63011888	      2.66735472	      2.16603734	     85.65782987	      1.49501116	     25.85813801	     -2.61897173	      0.00000000	      0.00000000	     45.65558539	    -11.81386772	      2.28577840	     70.74676959	      1.23476406	     -1.88594016	     -8.02808973	      0.00000000	      0.00000000	    -67.39186660	      7.83541092	      2.89436475	     89.56091242	    -11.69852631	     31.30406414	     66.58816219	     33.56447776	      0.00000000	      0.00000000	     75.47214540	    -33.46661582	     18.67933539	     79.57984322	     44.48753280	      0.00000000	      0.00000000
